<svg width="275" height="299" viewBox="0 0 275 299" fill="none" xmlns="http://www.w3.org/2000/svg">
<path d="M274.523 57.7512L276.594 59.9217L278.654 57.9561L276.799 55.7962L274.523 57.7512ZM236.803 93.7392L234.626 95.803L236.696 97.9875L238.874 95.9098L236.803 93.7392ZM81.6889 80.8451L79.5749 78.7165L79.5675 78.7238L81.6889 80.8451ZM194.079 237.691L195.3 240.432L195.312 240.427L195.323 240.422L194.079 237.691ZM236.803 205.745L238.968 203.668L236.856 201.467L234.691 203.615L236.803 205.745ZM273.369 243.85L275.463 245.997L277.593 243.92L275.533 241.773L273.369 243.85ZM214.094 286.381L215.257 289.146L215.266 289.143L215.274 289.14L214.094 286.381ZM42.2367 256.359L40.1154 258.48L40.1251 258.49L42.2367 256.359ZM19.3352 73.7245L16.7455 72.21L16.7389 72.2214L19.3352 73.7245ZM74.1833 20.8009L72.7192 18.1824L72.7132 18.1858L74.1833 20.8009ZM218.52 15.6047L217.27 18.3319L217.277 18.3347L218.52 15.6047ZM272.452 55.5806L234.732 91.5687L238.874 95.9098L276.594 59.9217L272.452 55.5806ZM238.98 91.6754C212.855 64.1127 183.235 50.1324 150.201 50.1324V56.1324C181.317 56.1324 209.432 69.2234 234.626 95.803L238.98 91.6754ZM150.201 50.1324C122.366 50.1324 98.7604 59.6633 79.5749 78.7165L83.8028 82.9738C101.824 65.0767 123.893 56.1324 150.201 56.1324V50.1324ZM79.5675 78.7238C60.5075 97.7838 50.9761 121.33 50.9761 149.165H56.9761C56.9761 122.857 65.9199 100.857 83.8102 82.9664L79.5675 78.7238ZM50.9761 149.165C50.9761 168.474 55.1839 185.734 63.6769 200.863L68.9088 197.925C60.9795 183.801 56.9761 167.576 56.9761 149.165H50.9761ZM63.6769 200.863C72.1669 215.985 84.1847 227.862 99.6693 236.465L102.583 231.22C88.0457 223.144 76.8413 212.055 68.9088 197.925L63.6769 200.863ZM99.6693 236.465C115.157 245.069 132.342 249.352 151.163 249.352V243.352C133.29 243.352 117.118 239.295 102.583 231.22L99.6693 236.465ZM151.163 249.352C167.193 249.352 181.92 246.393 195.3 240.432L192.858 234.951C180.323 240.536 166.439 243.352 151.163 243.352V249.352ZM195.323 240.422C208.729 234.316 223.26 223.401 238.916 207.875L234.691 203.615C219.298 218.88 205.346 229.263 192.836 234.961L195.323 240.422ZM234.639 207.822L271.204 245.927L275.533 241.773L238.968 203.668L234.639 207.822ZM271.274 241.702C250.518 261.949 231.063 275.863 212.915 283.623L215.274 289.14C234.332 280.99 254.393 266.55 275.463 245.997L271.274 241.702ZM212.931 283.616C194.756 291.262 173.929 295.121 150.393 295.121V301.121C174.585 301.121 196.225 297.153 215.257 289.146L212.931 283.616ZM150.393 295.121C107.08 295.121 71.8186 281.447 44.3483 254.228L40.1251 258.49C68.8501 286.953 105.693 301.121 150.393 301.121V295.121ZM44.358 254.238C17.0118 226.892 3.28271 191.888 3.28271 148.972H-2.71729C-2.71729 193.3 11.523 229.888 40.1154 258.48L44.358 254.238ZM3.28271 148.972C3.28271 121.213 9.52338 96.6598 21.9315 75.2276L16.7389 72.2214C3.74369 94.6677 -2.71729 120.28 -2.71729 148.972H3.28271ZM21.9249 75.2389C34.4668 53.7923 52.348 36.5174 75.6534 23.416L72.7132 18.1858C48.5478 31.7706 29.8636 49.7782 16.7455 72.2101L21.9249 75.2389ZM75.6474 23.4193C99.0618 10.3275 124.217 3.78612 151.163 3.78612V-2.21388C123.197 -2.21388 97.0324 4.58794 72.7192 18.1824L75.6474 23.4193ZM151.163 3.78612C174.075 3.78612 196.102 8.62975 217.271 18.3319L219.77 12.8775C197.83 2.82156 174.952 -2.21388 151.163 -2.21388V3.78612ZM217.277 18.3347C238.56 28.0319 256.876 41.815 272.248 59.7062L276.799 55.7962C260.865 37.2503 241.846 22.9358 219.764 12.8747L217.277 18.3347Z" fill="white"/>
</svg>
