<svg width="156" height="284" viewBox="0 0 156 284" fill="none" xmlns="http://www.w3.org/2000/svg">
<path d="M0.523972 0.906746V-2.09325H-2.47603V0.906746H0.523972ZM155.061 0.906746H158.061V-2.09325H155.061V0.906746ZM155.061 53.6379V56.6379H158.061V53.6379H155.061ZM54.0249 53.6379V50.6379H51.0249V53.6379H54.0249ZM54.0249 104.829H51.0249V107.829H54.0249V104.829ZM155.061 104.829H158.061V101.829H155.061V104.829ZM155.061 156.598V159.598H158.061V156.598H155.061ZM54.0249 156.598V153.598H51.0249V156.598H54.0249ZM54.0249 231.076H51.0249V234.076H54.0249V231.076ZM155.061 231.076H158.061V228.076H155.061V231.076ZM155.061 284V287H158.061V284H155.061ZM0.523972 284H-2.47603V287H0.523972V284ZM0.523972 3.90675H155.061V-2.09325H0.523972V3.90675ZM152.061 0.906746V53.6379H158.061V0.906746H152.061ZM155.061 50.6379H54.0249V56.6379H155.061V50.6379ZM51.0249 53.6379V104.829H57.0249V53.6379H51.0249ZM54.0249 107.829H155.061V101.829H54.0249V107.829ZM152.061 104.829V156.598H158.061V104.829H152.061ZM155.061 153.598H54.0249V159.598H155.061V153.598ZM51.0249 156.598V231.076H57.0249V156.598H51.0249ZM54.0249 234.076H155.061V228.076H54.0249V234.076ZM152.061 231.076V284H158.061V231.076H152.061ZM155.061 281H0.523972V287H155.061V281ZM3.52397 284V0.906746H-2.47603V284H3.52397Z" fill="white"/>
</svg>
