<svg width="183" height="284" viewBox="0 0 183 284" fill="none" xmlns="http://www.w3.org/2000/svg">
<path d="M0.98806 0.906746V-2.09325H-2.01194V0.906746H0.98806ZM124.926 9.37453L123.747 12.1333L123.763 12.1402L123.779 12.1469L124.926 9.37453ZM155.717 129.848L153.276 128.104L153.273 128.109L155.717 129.848ZM115.496 158.138L114.487 155.313L111.216 156.481L112.847 159.547L115.496 158.138ZM182.468 284V287H187.463L185.116 282.591L182.468 284ZM123.578 284L120.929 285.408L121.775 287H123.578V284ZM59.8776 164.104L62.5269 162.696L61.6808 161.104H59.8776V164.104ZM54.8739 164.104V161.104H51.8739V164.104H54.8739ZM54.8739 284V287H57.8739V284H54.8739ZM0.98806 284H-2.01194V287H0.98806V284ZM54.8739 111.565H51.8739V114.565H54.8739V111.565ZM107.22 104.829L105.523 102.356L105.511 102.364L105.5 102.372L107.22 104.829ZM112.224 66.532L109.76 68.2432L109.771 68.2596L109.783 68.2758L112.224 66.532ZM99.3298 56.7171L98.2618 59.5206L98.2912 59.5318L98.3208 59.5423L99.3298 56.7171ZM54.8739 53.6379V50.6379H51.8739V53.6379H54.8739ZM0.98806 3.90675H58.1456V-2.09325H0.98806V3.90675ZM58.1456 3.90675C89.4117 3.90675 111.136 6.74619 123.747 12.1333L126.104 6.61571C112.285 0.712494 89.4897 -2.09325 58.1456 -2.09325V3.90675ZM123.779 12.1469C136.509 17.4103 146.747 26.2154 154.519 38.675L159.61 35.4995C151.216 22.0426 140.028 12.3725 126.072 6.60215L123.779 12.1469ZM154.519 38.675C162.26 51.0852 166.189 65.8476 166.189 83.0827H172.189C172.189 64.9071 168.035 49.0059 159.61 35.4995L154.519 38.675ZM166.189 83.0827C166.189 101.191 161.825 116.136 153.276 128.104L158.159 131.592C167.572 118.413 172.189 102.181 172.189 83.0827H166.189ZM153.273 128.109C144.856 139.941 132.015 149.053 114.487 155.313L116.505 160.963C134.9 154.393 148.873 144.645 158.162 131.587L153.273 128.109ZM112.847 159.547L179.82 285.409L185.116 282.591L118.144 156.729L112.847 159.547ZM182.468 281H123.578V287H182.468V281ZM126.228 282.592L62.5269 162.696L57.2283 165.512L120.929 285.408L126.228 282.592ZM59.8776 161.104H54.8739V167.104H59.8776V161.104ZM51.8739 164.104V284H57.8739V164.104H51.8739ZM54.8739 281H0.98806V287H54.8739V281ZM3.98806 284V0.906746H-2.01194V284H3.98806ZM54.8739 114.565H71.8095V108.565H54.8739V114.565ZM71.8095 114.565C80.5206 114.565 87.9702 113.998 94.1169 112.828C100.235 111.665 105.25 109.871 108.941 107.287L105.5 102.372C102.775 104.279 98.6814 105.853 92.9957 106.934C87.3388 108.01 80.2905 108.565 71.8095 108.565V114.565ZM108.918 107.303C116.521 102.085 120.035 93.5469 120.035 82.5053H114.035C114.035 92.2484 111.006 98.593 105.523 102.356L108.918 107.303ZM120.035 82.5053C120.035 75.7975 118.278 69.846 114.665 64.7883L109.783 68.2758C112.585 72.1991 114.035 76.8964 114.035 82.5053H120.035ZM114.688 64.8208C111.117 59.6785 106.306 56.0229 100.339 53.8919L98.3208 59.5423C103.131 61.2603 106.916 64.148 109.76 68.2432L114.688 64.8208ZM100.398 53.9137C94.4337 51.6416 84.0403 50.6379 69.6925 50.6379V56.6379C84.0839 56.6379 93.4486 57.687 98.2618 59.5206L100.398 53.9137ZM69.6925 50.6379H54.8739V56.6379H69.6925V50.6379ZM51.8739 53.6379V111.565H57.8739V53.6379H51.8739Z" fill="white"/>
</svg>
