<svg width="179" height="299" viewBox="0 0 179 299" fill="none" xmlns="http://www.w3.org/2000/svg">
<path d="M173.71 46.3967L175.697 48.6443L177.913 46.6851L175.985 44.4415L173.71 46.3967ZM133.873 81.6149L131.435 83.3632L133.371 86.0629L135.86 83.8625L133.873 81.6149ZM73.8288 58.1361L75.7429 60.4461L75.7621 60.4301L75.7812 60.4138L73.8288 58.1361ZM71.9043 84.3092L69.513 86.1208L69.5217 86.1322L69.5304 86.1436L71.9043 84.3092ZM111.356 120.682L109.416 122.97L109.423 122.976L109.43 122.982L111.356 120.682ZM148.692 153.206L146.54 155.297L146.549 155.306L146.558 155.315L148.692 153.206ZM171.786 184.96L169.043 186.176L169.052 186.197L169.062 186.217L171.786 184.96ZM39.1879 283.302L37.5287 285.802L37.5386 285.808L39.1879 283.302ZM0.89043 236.729L-0.661083 234.162L-3.03713 235.597L-1.78959 238.077L0.89043 236.729ZM46.1161 209.401L48.7518 207.969L47.2521 205.21L44.5646 206.834L46.1161 209.401ZM87.3003 171.489L89.199 169.166L89.1979 169.165L87.3003 171.489ZM27.6409 113.369L25.1304 115.011L25.1375 115.022L27.6409 113.369ZM36.4936 21.9556L38.5479 24.1418L38.5485 24.1413L36.4936 21.9556ZM132.141 10.601L130.767 13.268L130.778 13.2736L132.141 10.601ZM171.723 44.149L131.886 79.3673L135.86 83.8625L175.697 48.6443L171.723 44.149ZM136.311 79.8667C122.133 60.0951 107.11 49.3626 91.1493 49.3626V55.3626C104.185 55.3626 117.644 64.1316 131.435 83.3632L136.311 79.8667ZM91.1493 49.3626C83.5216 49.3626 77.0114 51.4569 71.8764 55.8583L75.7812 60.4138C79.6272 57.1173 84.6639 55.3626 91.1493 55.3626V49.3626ZM71.9147 55.826C66.9086 59.9739 64.0931 64.9955 64.0931 70.8377H70.0931C70.0931 67.1858 71.768 63.7396 75.7429 60.4461L71.9147 55.826ZM64.0931 70.8377C64.0931 76.3162 65.96 81.4307 69.513 86.1208L74.2956 82.4976C71.4337 78.7199 70.0931 74.8534 70.0931 70.8377H64.0931ZM69.5304 86.1436C71.8841 89.1895 76.4362 93.7854 83.0055 99.842C89.6239 105.944 98.4314 113.656 109.416 122.97L113.297 118.394C102.342 109.105 93.6048 101.453 87.0725 95.4307C80.4911 89.3629 76.2867 85.0741 74.2782 82.4749L69.5304 86.1436ZM109.43 122.982C130.008 140.216 142.311 150.943 146.54 155.297L150.844 151.116C146.348 146.488 133.761 135.533 113.283 118.382L109.43 122.982ZM146.558 155.315C157.302 166.186 164.746 176.476 169.043 186.176L174.528 183.745C169.845 173.173 161.892 162.294 150.825 151.097L146.558 155.315ZM169.062 186.217C173.484 195.799 175.714 206.335 175.714 217.869H181.714C181.714 205.54 179.325 194.136 174.509 183.703L169.062 186.217ZM175.714 217.869C175.714 240.315 168.001 258.69 152.598 273.23L156.717 277.593C173.39 261.854 181.714 241.868 181.714 217.869H175.714ZM152.598 273.23C137.211 287.756 117.08 295.121 91.9191 295.121V301.121C118.334 301.121 140.029 293.346 156.717 277.593L152.598 273.23ZM91.9191 295.121C72.2889 295.121 55.3007 290.315 40.8371 280.796L37.5386 285.808C53.0972 296.047 71.2631 301.121 91.9191 301.121V295.121ZM40.847 280.803C26.5182 271.291 14.059 256.232 3.57046 235.381L-1.78959 238.077C9.01962 259.566 22.0921 275.555 37.5288 285.801L40.847 280.803ZM2.44194 239.297L47.6676 211.969L44.5646 206.834L-0.661083 234.162L2.44194 239.297ZM43.4803 210.834C57.2644 236.192 73.704 249.929 93.0738 249.929V243.929C77.0328 243.929 62.1673 232.648 48.7518 207.969L43.4803 210.834ZM93.0738 249.929C102.939 249.929 111.418 247.033 118.313 241.124L114.408 236.568C108.728 241.436 101.684 243.929 93.0738 243.929V249.929ZM118.313 241.124C125.137 235.275 128.79 228.266 128.79 220.179H122.79C122.79 226.204 120.157 231.641 114.408 236.568L118.313 241.124ZM128.79 220.179C128.79 212.978 126.116 205.953 121.081 199.149L116.258 202.718C120.718 208.745 122.79 214.549 122.79 220.179H128.79ZM121.081 199.149C116.082 192.394 105.345 182.365 89.199 169.166L85.4016 173.812C101.587 187.043 111.763 196.643 116.258 202.718L121.081 199.149ZM89.1979 169.165C58.3995 144.013 38.8462 124.893 30.1443 111.716L25.1375 115.022C34.3976 129.045 54.6172 148.671 85.4027 173.812L89.1979 169.165ZM30.1514 111.727C21.4232 98.385 17.1694 85.2829 17.1694 72.3773H11.1694C11.1694 86.6713 15.8967 100.897 25.1304 115.011L30.1514 111.727ZM17.1694 72.3773C17.1694 53.6124 24.2411 37.5853 38.5479 24.1418L34.4393 19.7693C18.9805 34.2952 11.1694 51.8825 11.1694 72.3773H17.1694ZM38.5485 24.1413C52.9648 10.5875 70.6891 3.78612 91.9191 3.78612V-2.21388C69.2705 -2.21388 50.0445 5.09773 34.4387 19.7699L38.5485 24.1413ZM91.9191 3.78612C105.548 3.78612 118.485 6.94073 130.767 13.268L133.515 7.93412C120.394 1.17478 106.516 -2.21388 91.9191 -2.21388V3.78612ZM130.778 13.2736C143.116 19.5661 156.675 31.174 171.435 48.3518L175.985 44.4415C160.98 26.9784 146.826 14.7225 133.504 7.92854L130.778 13.2736Z" fill="white"/>
</svg>
