<svg width="256" height="284" viewBox="0 0 256 284" fill="none" xmlns="http://www.w3.org/2000/svg">
<path d="M0.777173 0.906746V-2.09325H-3.46798L-2.0507 1.90833L0.777173 0.906746ZM56.2026 0.906746L59.0306 -0.0945435L58.3229 -2.09325H56.2026V0.906746ZM127.409 202.017L124.581 203.018L127.39 210.951L130.233 203.03L127.409 202.017ZM199.578 0.906746V-2.09325H197.467L196.754 -0.106537L199.578 0.906746ZM255.003 0.906746L257.825 1.92365L259.273 -2.09325H255.003V0.906746ZM153.005 284V287H155.113L155.827 285.017L153.005 284ZM101.043 284L98.2155 285.002L98.9233 287H101.043V284ZM0.777173 3.90675H56.2026V-2.09325H0.777173V3.90675ZM53.3747 1.90804L124.581 203.018L130.237 201.015L59.0306 -0.0945435L53.3747 1.90804ZM130.233 203.03L202.401 1.92004L196.754 -0.106537L124.585 201.003L130.233 203.03ZM199.578 3.90675H255.003V-2.09325H199.578V3.90675ZM252.181 -0.110153L150.182 282.983L155.827 285.017L257.825 1.92365L252.181 -0.110153ZM153.005 281H101.043V287H153.005V281ZM103.871 282.998L3.60504 -0.0948257L-2.0507 1.90833L98.2155 285.002L103.871 282.998Z" fill="white"/>
</svg>
